<svg xmlns="http://www.w3.org/2000/svg" width="640" height="360" viewBox="0 0 640 360">
  <rect width="640" height="360" fill="#134e4a"/>
  <rect x="48" y="48" width="544" height="264" rx="18" fill="#0f766e" stroke="#5eead4" stroke-width="3"/>
  <rect x="80" y="166" width="8" height="28" rx="3" fill="#ccfbf1"/><rect x="92" y="156.5" width="8" height="47" rx="3" fill="#5eead4"/><rect x="104" y="147" width="8" height="66" rx="3" fill="#2dd4bf"/><rect x="116" y="137.5" width="8" height="85" rx="3" fill="#ccfbf1"/><rect x="128" y="128" width="8" height="104" rx="3" fill="#5eead4"/><rect x="140" y="118.5" width="8" height="123" rx="3" fill="#2dd4bf"/><rect x="152" y="109" width="8" height="142" rx="3" fill="#ccfbf1"/><rect x="164" y="99.5" width="8" height="161" rx="3" fill="#5eead4"/><rect x="176" y="165" width="8" height="30" rx="3" fill="#2dd4bf"/><rect x="188" y="155.5" width="8" height="49" rx="3" fill="#ccfbf1"/><rect x="200" y="146" width="8" height="68" rx="3" fill="#5eead4"/><rect x="212" y="136.5" width="8" height="87" rx="3" fill="#2dd4bf"/><rect x="224" y="127" width="8" height="106" rx="3" fill="#ccfbf1"/><rect x="236" y="117.5" width="8" height="125" rx="3" fill="#5eead4"/><rect x="248" y="108" width="8" height="144" rx="3" fill="#2dd4bf"/><rect x="260" y="98.5" width="8" height="163" rx="3" fill="#ccfbf1"/><rect x="272" y="164" width="8" height="32" rx="3" fill="#5eead4"/><rect x="284" y="154.5" width="8" height="51" rx="3" fill="#2dd4bf"/><rect x="296" y="145" width="8" height="70" rx="3" fill="#ccfbf1"/><rect x="308" y="135.5" width="8" height="89" rx="3" fill="#5eead4"/><rect x="320" y="126" width="8" height="108" rx="3" fill="#2dd4bf"/><rect x="332" y="116.5" width="8" height="127" rx="3" fill="#ccfbf1"/><rect x="344" y="107" width="8" height="146" rx="3" fill="#5eead4"/><rect x="356" y="97.5" width="8" height="165" rx="3" fill="#2dd4bf"/><rect x="368" y="163" width="8" height="34" rx="3" fill="#ccfbf1"/><rect x="380" y="153.5" width="8" height="53" rx="3" fill="#5eead4"/><rect x="392" y="144" width="8" height="72" rx="3" fill="#2dd4bf"/><rect x="404" y="134.5" width="8" height="91" rx="3" fill="#ccfbf1"/><rect x="416" y="125" width="8" height="110" rx="3" fill="#5eead4"/><rect x="428" y="115.5" width="8" height="129" rx="3" fill="#2dd4bf"/><rect x="440" y="106" width="8" height="148" rx="3" fill="#ccfbf1"/><rect x="452" y="96.5" width="8" height="167" rx="3" fill="#5eead4"/><rect x="464" y="162" width="8" height="36" rx="3" fill="#2dd4bf"/><rect x="476" y="152.5" width="8" height="55" rx="3" fill="#ccfbf1"/><rect x="488" y="143" width="8" height="74" rx="3" fill="#5eead4"/><rect x="500" y="133.5" width="8" height="93" rx="3" fill="#2dd4bf"/><rect x="512" y="124" width="8" height="112" rx="3" fill="#ccfbf1"/><rect x="524" y="114.5" width="8" height="131" rx="3" fill="#5eead4"/><rect x="536" y="105" width="8" height="150" rx="3" fill="#2dd4bf"/><rect x="548" y="95.5" width="8" height="169" rx="3" fill="#ccfbf1"/>
  <circle cx="320" cy="180" r="26" fill="#042f2e" stroke="#99f6e4" stroke-width="3"/>
  <polygon points="312,168 336,180 312,192" fill="#ecfdf5"/>
  <text x="320" y="300" text-anchor="middle" fill="#ecfdf5" font-size="16" font-family="sans-serif">SFX WAVEFORM</text>
</svg>
