<svg xmlns="http://www.w3.org/2000/svg" width="640" height="360" viewBox="0 0 640 360">
  <rect width="640" height="360" fill="#0c4a6e"/>
  <rect x="0" y="200" width="640" height="160" fill="#075985"/>
  <path d="M0 220 L120 180 L240 210 L360 160 L480 200 L640 170 L640 360 L0 360Z" fill="#166534" opacity="0.7"/>
  <rect x="80" y="140" width="70" height="70" fill="#92400e"/><polygon points="80,140 115,110 150,140" fill="#b91c1c"/>
  <rect x="220" y="120" width="90" height="90" fill="#a16207"/><polygon points="220,120 265,85 310,120" fill="#ca8a04"/>
  <rect x="400" y="150" width="60" height="55" fill="#7c2d12"/>
  <rect x="500" y="110" width="80" height="100" fill="#1e3a8a"/><rect x="520" y="130" width="18" height="18" fill="#93c5fd"/>
  <path d="M40 280 Q200 250 320 290 T600 270" fill="none" stroke="#fde68a" stroke-width="8" stroke-linecap="round"/>
  <circle cx="200" cy="265" r="10" fill="#fbbf24" stroke="#fff" stroke-width="2"/>
  <circle cx="420" cy="278" r="8" fill="#38bdf8" stroke="#fff" stroke-width="2"/>
</svg>
