<svg xmlns="http://www.w3.org/2000/svg" width="640" height="360" viewBox="0 0 640 360">
  <defs>
    <linearGradient id="sky" x1="0" y1="0" x2="0" y2="1">
      <stop offset="0%" stop-color="#1e1035"/>
      <stop offset="100%" stop-color="#451a03"/>
    </linearGradient>
    <radialGradient id="fire" cx="35%" cy="70%" r="40%">
      <stop offset="0%" stop-color="#fb923c" stop-opacity="0.9"/>
      <stop offset="100%" stop-color="#7c2d12" stop-opacity="0"/>
    </radialGradient>
  </defs>
  <rect width="640" height="360" fill="url(#sky)"/>
  <path d="M0 200 L160 120 L280 170 L400 90 L560 150 L640 130 L640 360 L0 360Z" fill="#292524"/>
  <!-- burning castle gate -->
  <rect x="80" y="80" width="200" height="180" fill="#3f3f46"/>
  <rect x="130" y="130" width="100" height="130" fill="#0c0a09"/>
  <path d="M130 130 L180 80 L230 130Z" fill="#57534e"/>
  <g fill="#ea580c" opacity="0.85">
    <ellipse cx="180" cy="200" rx="35" ry="50"/>
    <ellipse cx="160" cy="210" rx="12" ry="22"/>
    <ellipse cx="200" cy="205" rx="10" ry="18"/>
  </g>
  <rect width="640" height="360" fill="url(#fire)"/>
  <!-- player knight (third-person over-shoulder) -->
  <g transform="translate(380,200)">
    <ellipse cx="40" cy="95" rx="45" ry="12" fill="#0c0a09" opacity="0.5"/>
    <rect x="20" y="30" width="40" height="55" rx="6" fill="#44403c"/>
    <circle cx="40" cy="18" r="16" fill="#57534e"/>
    <rect x="55" y="25" width="8" height="75" fill="#78716c"/>
    <path d="M63 25 L95 5 L63 35Z" fill="#d6d3d1"/>
    <path d="M15 45 L5 90 L18 90 L25 55 L40 80 L55 55 L62 90 L75 90 L65 45Z" fill="#292524"/>
  </g>
  <!-- HUD -->
  <rect x="16" y="16" width="120" height="10" rx="3" fill="#0c0a09" opacity="0.7"/>
  <rect x="16" y="16" width="84" height="10" rx="3" fill="#dc2626"/>
  <rect x="16" y="32" width="80" height="8" rx="2" fill="#0c0a09" opacity="0.6"/>
  <rect x="16" y="32" width="52" height="8" rx="2" fill="#2563eb"/>
  <circle cx="320" cy="180" r="14" fill="none" stroke="#fb923c" stroke-width="1" opacity="0.35"/>
  <line x1="320" y1="168" x2="320" y2="192" stroke="#fb923c" stroke-width="1" opacity="0.35"/>
  <line x1="308" y1="180" x2="332" y2="180" stroke="#fb923c" stroke-width="1" opacity="0.35"/>
</svg>
