<svg xmlns="http://www.w3.org/2000/svg" width="640" height="360" viewBox="0 0 640 360">
  <rect width="640" height="360" fill="#0f172a"/>
  <rect x="40" y="36" width="560" height="288" rx="12" fill="#1e293b" stroke="#64748b" stroke-width="2"/>
  <rect x="40" y="36" width="560" height="36" rx="12" fill="#334155"/>
  <circle cx="64" cy="54" r="6" fill="#f87171"/><circle cx="84" cy="54" r="6" fill="#fbbf24"/><circle cx="104" cy="54" r="6" fill="#4ade80"/>
  <rect x="140" y="46" width="280" height="16" rx="4" fill="#0f172a"/>
  <rect x="70" y="100" width="200" height="160" rx="8" fill="#0f172a" stroke="#38bdf8"/>
  <text x="170" y="140" text-anchor="middle" fill="#94a3b8" font-size="14" font-family="sans-serif">JSON</text>
  <rect x="90" y="160" width="160" height="10" rx="2" fill="#334155"/><rect x="90" y="180" width="120" height="10" rx="2" fill="#334155"/>
  <polygon points="300,170 330,185 300,200" fill="#818cf8"/>
  <rect x="360" y="100" width="200" height="160" rx="8" fill="#0f172a" stroke="#a78bfa"/>
  <text x="460" y="140" text-anchor="middle" fill="#c4b5fd" font-size="14" font-family="sans-serif">CSV</text>
  <rect x="380" y="160" width="160" height="10" rx="2" fill="#4c1d95"/><rect x="380" y="180" width="100" height="10" rx="2" fill="#4c1d95"/>
</svg>
